<?xml version="1.0" standalone="no"?>
<!DOCTYPE svg PUBLIC "-//W3C//DTD SVG 20010904//EN" "http://www.w3.org/TR/2001/REC-SVG-20010904/DTD/svg10.dtd">
<svg xmlns="http://www.w3.org/2000/svg" version="1.0" width="745.000000pt" height="754.000000pt" viewBox="0 0 745.000000 754.000000" preserveAspectRatio="xMidYMid meet">
<metadata>
Created by potrace 1.16, written by Peter Selinger 2001-2019
<meta name="Producer" content="Online-Convert"/></metadata>
<g transform="translate(0.000000,754.000000) scale(0.100000,-0.100000)" fill="#000000" stroke="none">
<path d="M1080 6940 l0 -40 -92 0 c-95 0 -158 -15 -158 -37 0 -7 -4 -13 -10 -13 -5 0 -10 -9 -10 -20 0 -15 -7 -20 -24 -20 -30 0 -56 -24 -56 -53 0 -31 -11 -44 -40 -48 -19 -3 -26 -11 -28 -31 -3 -22 -11 -29 -40 -38 -20 -5 -43 -10 -49 -10 -8 0 -13 -15 -13 -40 0 -36 -2 -40 -33 -45 -27 -5 -35 -13 -45 -46 -7 -21 -12 -70 -12 -108 0 -91 -5 -101 -46 -101 l-34 0 0 -2604 0 -2605 38 -3 37 -3 3 -95 c2 -52 7 -99 12 -104 6 -6 10 -18 10 -28 0 -11 7 -18 20 -18 11 0 20 -4 20 -10 0 -5 7 -10 15 -10 10 0 15 -10 15 -34 0 -31 3 -35 32 -41 61 -12 67 -16 70 -43 2 -21 9 -28 31 -30 30 -4 32 -7 42 -64 5 -34 9 -38 37 -38 34 0 57 -23 58 -56 0 -18 8 -22 46 -28 26 -3 65 -6 88 -6 23 0 58 -3 79 -6 34 -6 37 -9 37 -40 l0 -34 2599 0 c2361 0 2599 1 2605 16 3 9 6 24 6 35 0 10 1 19 3 20 1 0 50 4 110 8 59 5 114 14 122 21 8 7 15 25 15 41 0 27 3 29 36 29 45 0 64 19 64 64 0 33 2 36 30 36 25 0 30 4 36 35 5 28 11 35 30 35 43 0 73 21 76 53 2 16 11 34 21 38 9 5 25 13 35 18 14 7 17 25 20 125 l3 116 33 0 c19 0 40 7 47 17 21 24 21 5152 0 5176 -8 10 -28 17 -47 17 l-34 0 0 111 c0 119 -5 132 -54 145 -21 5 -26 12 -26 39 0 28 -5 35 -31 44 -18 6 -40 11 -49 11 -12 0 -20 11 -24 35 -6 31 -11 35 -36 35 -28 0 -30 2 -30 39 0 35 -3 40 -31 50 -18 6 -40 11 -50 11 -14 0 -19 7 -19 30 0 20 -6 33 -17 36 -10 3 -27 10 -38 15 -11 5 -58 10 -105 11 l-85 3 -3 38 -3 37 -2605 0 -2604 0 0 -40z m3130 -445 c63 -7 135 -20 160 -29 62 -21 162 -36 240 -36 77 0 156 -19 205 -50 19 -12 71 -27 117 -35 96 -16 108 -19 168 -50 25 -13 75 -29 110 -35 92 -15 129 -25 176 -48 22 -12 63 -26 90 -33 53 -13 119 -43 129 -58 3 -5 31 -19 63 -31 31 -12 77 -34 102 -50 25 -15 69 -35 98 -44 29 -8 65 -24 80 -34 15 -11 56 -34 92 -51 82 -40 165 -90 210 -129 19 -16 58 -41 85 -55 64 -33 143 -86 241 -162 83 -64 139 -105 232 -171 32 -23 64 -49 71 -58 7 -9 22 -16 32 -16 18 0 19 -10 19 -169 0 -141 -3 -172 -16 -185 -22 -22 -30 -20 -51 11 -23 34 -116 126 -165 161 -20 15 -65 47 -100 71 -35 25 -67 50 -73 57 -22 27 -143 117 -187 140 -26 13 -49 28 -53 34 -4 6 -27 21 -53 34 -26 13 -58 36 -72 51 -14 15 -53 40 -87 55 -35 16 -63 33 -63 39 0 5 -26 19 -57 31 -32 11 -76 34 -99 50 -22 16 -54 32 -70 36 -41 10 -98 41 -119 64 -10 11 -34 23 -54 26 -43 8 -86 29 -122 59 -17 14 -47 24 -82 28 -56 7 -140 38 -167 62 -8 7 -44 16 -80 20 -77 8 -156 40 -163 64 -3 15 -20 19 -83 25 -97 8 -187 33 -216 60 -20 19 -40 22 -203 28 -163 6 -290 21 -430 49 -115 23 -170 27 -370 28 -205 0 -302 -7 -397 -28 -78 -17 -274 -40 -434 -51 -135 -8 -157 -13 -218 -40 -45 -21 -96 -34 -154 -41 -48 -6 -97 -16 -108 -22 -12 -7 -39 -22 -61 -34 -21 -12 -67 -27 -102 -33 -34 -6 -88 -24 -119 -39 -32 -16 -89 -36 -129 -44 -40 -9 -89 -27 -110 -40 -21 -13 -63 -32 -93 -42 -30 -9 -70 -29 -89 -43 -18 -14 -56 -34 -85 -44 -28 -11 -58 -26 -66 -33 -8 -7 -53 -32 -100 -55 -188 -93 -219 -110 -227 -123 -4 -7 -75 -58 -158 -112 -82 -55 -170 -118 -196 -140 -25 -22 -75 -61 -110 -86 -35 -26 -90 -69 -121 -97 -31 -27 -60 -52 -65 -53 -4 -2 -23 -23 -41 -46 -22 -28 -42 -43 -56 -43 -22 0 -23 5 -29 98 -4 53 -7 123 -7 154 0 56 15 108 31 108 4 0 41 29 81 65 40 36 91 78 113 93 22 15 76 55 120 88 84 64 253 174 268 174 4 0 25 13 45 30 79 63 315 193 399 220 21 7 59 26 85 42 26 16 62 34 81 39 19 5 54 23 78 39 24 17 69 37 99 46 30 9 91 31 135 49 44 18 114 38 155 45 41 7 96 23 121 35 46 24 132 48 204 59 23 3 68 19 100 35 70 34 90 38 244 51 64 6 159 21 211 34 146 36 161 38 375 46 263 10 701 2 845 -15z m819 -1043 c6 -15 27 -36 47 -47 19 -10 49 -37 68 -59 19 -23 132 -138 252 -256 119 -118 232 -231 250 -250 42 -44 44 -46 73 -69 l25 -18 -42 -27 c-23 -14 -48 -39 -57 -55 -15 -31 -24 -35 -88 -46 -53 -9 -74 1 -81 36 -3 19 -16 36 -36 47 -16 9 -40 36 -52 60 -13 23 -28 42 -35 42 -7 0 -20 -15 -30 -32 -17 -31 -18 -104 -23 -1148 l-5 -1115 -40 -7 c-73 -13 -458 -9 -476 5 -9 7 -24 34 -33 60 -14 43 -16 153 -16 1043 0 1015 -3 1118 -38 1157 -22 25 -54 18 -63 -15 -4 -15 -37 -57 -73 -94 l-67 -66 -42 38 c-23 20 -46 45 -51 55 -4 9 -23 25 -42 35 -37 20 -42 35 -18 55 9 7 23 30 31 51 9 23 27 45 43 53 16 8 72 63 127 121 54 59 109 116 123 128 35 30 147 141 203 203 26 29 59 56 73 59 14 4 27 12 30 18 18 53 25 66 38 66 7 0 19 -13 25 -28z m-1269 -757 c18 -35 569 -585 600 -599 11 -5 20 -13 20 -18 0 -25 -45 -91 -85 -125 -34 -28 -45 -44 -45 -65 0 -42 -26 -35 -37 9 -7 30 -14 38 -40 45 -20 5 -39 21 -52 42 -12 18 -38 45 -58 59 -21 14 -50 37 -65 51 -54 52 -53 66 -55 -787 -2 -625 -5 -783 -15 -793 -11 -10 -236 -19 -500 -19 -1 0 -4 366 -7 813 -5 704 -8 814 -21 822 -10 6 -18 4 -24 -8 -13 -23 -25 -38 -68 -86 -21 -22 -48 -53 -60 -68 -19 -22 -34 -27 -90 -33 l-67 -6 -26 55 c-14 30 -34 58 -45 61 -27 9 -35 38 -14 50 17 9 133 114 158 143 6 7 62 63 125 125 62 62 136 137 165 167 119 127 159 161 204 179 62 25 84 22 102 -14z m-1385 -699 c6 -28 62 -88 311 -334 167 -166 304 -307 304 -313 0 -7 7 -21 17 -31 15 -17 12 -22 -53 -88 -38 -38 -77 -70 -87 -70 -10 0 -58 41 -106 90 -79 81 -92 90 -124 90 -22 0 -37 5 -37 12 0 6 -3 8 -7 4 -5 -4 -10 -192 -13 -416 -4 -346 -7 -412 -20 -424 -12 -12 -56 -15 -245 -16 -126 -1 -238 -1 -247 -1 -16 1 -18 32 -20 419 -2 314 -6 424 -16 446 l-13 29 -21 -42 c-11 -23 -38 -56 -60 -74 -21 -18 -48 -49 -59 -69 -18 -36 -22 -38 -67 -38 -74 0 -88 7 -101 52 -9 30 -20 42 -42 50 -34 12 -39 43 -9 53 11 4 26 21 34 38 15 36 533 556 583 587 18 10 39 33 48 50 21 40 42 39 50 -4z m-227 -2040 c10 -9 11 -26 5 -61 -8 -47 -10 -50 -54 -66 -26 -9 -64 -25 -85 -35 l-39 -19 -5 -187 c-6 -229 -9 -234 -92 -198 -29 12 -59 27 -65 32 -10 8 -13 57 -13 182 0 94 -4 176 -8 182 -4 6 -32 19 -63 28 -61 17 -69 27 -69 85 0 42 21 67 60 73 14 1 113 2 220 0 141 -2 199 -7 208 -16z m1313 -2 c18 -9 42 -47 83 -131 32 -65 64 -125 71 -133 7 -8 17 -28 23 -45 12 -37 17 -26 32 72 9 54 21 87 49 131 21 32 42 71 48 88 9 28 11 29 86 32 l77 3 0 -28 c0 -43 22 -118 50 -173 4 -8 17 -14 27 -13 19 2 19 -3 15 -102 -3 -69 0 -114 7 -134 16 -37 -3 -107 -35 -128 -30 -19 -138 -14 -141 7 -22 168 -37 249 -44 238 -5 -7 -9 -32 -9 -55 0 -61 -14 -89 -60 -118 -22 -14 -50 -41 -62 -60 -35 -52 -46 -52 -99 7 -53 57 -79 104 -79 138 0 11 -7 53 -16 92 -18 78 -33 77 -35 -2 0 -33 -3 -40 -8 -25 -5 13 -11 -17 -15 -85 -12 -177 -10 -175 -91 -140 -26 11 -55 20 -65 20 -43 0 -65 63 -39 112 6 11 16 100 23 198 12 177 12 178 41 207 17 16 39 34 50 40 22 13 78 6 116 -13z m982 11 c32 -13 98 -107 95 -134 -2 -19 -9 -26 -23 -25 -45 3 -161 22 -178 29 -13 6 -21 -2 -37 -36 -11 -24 -20 -49 -20 -56 0 -6 31 -16 73 -23 100 -17 182 -66 198 -119 17 -56 -10 -121 -62 -156 -22 -14 -39 -29 -39 -34 0 -20 -79 -35 -186 -36 -93 0 -115 3 -131 17 -25 23 -48 117 -33 132 7 7 43 10 88 8 81 -2 123 9 155 41 27 27 12 37 -74 48 -133 17 -149 27 -167 107 -11 47 0 188 16 204 6 6 35 19 64 30 43 15 72 18 148 14 52 -2 103 -7 113 -11z m521 5 c53 -8 64 -15 116 -68 l57 -59 7 -116 c4 -65 4 -143 0 -174 -6 -54 -11 -62 -61 -110 -64 -61 -88 -68 -223 -68 -82 1 -101 4 -133 24 -20 12 -37 27 -37 32 0 4 -13 15 -29 23 -46 24 -52 59 -45 245 l7 165 47 46 c66 65 154 83 294 60z m410 -6 c9 -8 16 -29 16 -45 0 -17 5 -40 11 -51 6 -12 11 -75 10 -153 0 -89 4 -137 12 -148 17 -22 75 -35 134 -30 77 8 93 -5 93 -76 0 -40 -5 -63 -15 -71 -10 -8 -55 -13 -132 -14 -149 -1 -173 9 -198 86 -9 29 -25 60 -34 68 -57 50 -65 111 -37 290 19 121 20 125 64 143 49 20 58 20 76 1z m-2750 -4 c35 -13 33 -36 -4 -55 -17 -9 -41 -33 -55 -55 -25 -39 -34 -44 -108 -54 -50 -6 -112 -45 -98 -59 6 -6 50 -14 99 -17 98 -6 112 -11 112 -44 0 -36 -17 -43 -123 -50 -55 -4 -105 -10 -113 -13 -23 -9 -16 -30 19 -55 28 -20 47 -24 151 -28 74 -3 123 -1 128 5 51 62 91 149 103 225 8 49 28 94 55 125 10 11 24 34 31 50 14 29 17 30 86 33 67 3 72 1 90 -24 10 -14 30 -39 45 -56 14 -16 32 -53 38 -81 15 -61 34 -101 66 -140 17 -20 24 -41 24 -71 0 -24 7 -65 15 -92 8 -27 15 -59 15 -71 0 -24 -47 -63 -77 -63 -39 0 -153 136 -137 162 6 9 -117 11 -140 2 -9 -3 -16 -18 -16 -33 -1 -14 -9 -41 -19 -60 -15 -28 -27 -37 -70 -48 -65 -16 -86 -7 -111 48 -18 42 -30 35 -30 -16 0 -38 -33 -48 -161 -49 -111 -1 -117 0 -156 27 -23 16 -46 41 -52 56 -12 27 -24 471 -14 497 4 11 42 14 193 14 104 0 200 -4 214 -10z"/>
<path d="M4867 1821 c-76 -11 -82 -23 -81 -152 1 -66 6 -115 13 -122 6 -6 43 -11 82 -11 l72 -1 12 35 c8 24 10 67 6 134 -5 80 -10 100 -26 112 -10 8 -21 13 -24 13 -3 -1 -27 -5 -54 -8z"/>
</g>
</svg>
